PathFileType	4	(X/Y/Z)	/Users/itak/Documents/Research/Walk-IL/dataset/trc/00062_00006.trc
DataRate	CameraRate	NumFrames	NumMarkers	Units	OrigDataRate	OrigDataStartFrame	OrigNumFrames
100.000000	100.000000	4	53	mm	100.000000	259	693
Frame#	Time	RPSI			LPSI			L3			STRN			T10			C7			CLAV			RBAK			LBAK			LSHO			LUPA			LAEL			LAOL			LWTS			LWPS			LFRA			LIFD			LHPS			LHTS			RSHO			RUPA			RAEL			RAOL			RWTS			RWPS			RFRA			RIFD			RHTS			RHPS			RBHD			LFHD			RFHD			LBHD			LHIP			RHIP			RASI			LASI			LKNE			LTHI			LANK			LTIP			LTOE			LMT1			LMT5			LHEE			RKNE			RTHI			RANK			RTIP			RTOE			RMT1			RMT5			RHEE			
		X1	Y1	Z1	X2	Y2	Z2	X3	Y3	Z3	X4	Y4	Z4	X5	Y5	Z5	X6	Y6	Z6	X7	Y7	Z7	X8	Y8	Z8	X9	Y9	Z9	X10	Y10	Z10	X11	Y11	Z11	X12	Y12	Z12	X13	Y13	Z13	X14	Y14	Z14	X15	Y15	Z15	X16	Y16	Z16	X17	Y17	Z17	X18	Y18	Z18	X19	Y19	Z19	X20	Y20	Z20	X21	Y21	Z21	X22	Y22	Z22	X23	Y23	Z23	X24	Y24	Z24	X25	Y25	Z25	X26	Y26	Z26	X27	Y27	Z27	X28	Y28	Z28	X29	Y29	Z29	X30	Y30	Z30	X31	Y31	Z31	X32	Y32	Z32	X33	Y33	Z33	X34	Y34	Z34	X35	Y35	Z35	X36	Y36	Z36	X37	Y37	Z37	X38	Y38	Z38	X39	Y39	Z39	X40	Y40	Z40	X41	Y41	Z41	X42	Y42	Z42	X43	Y43	Z43	X44	Y44	Z44	X45	Y45	Z45	X46	Y46	Z46	X47	Y47	Z47	X48	Y48	Z48	X49	Y49	Z49	X50	Y50	Z50	X51	Y51	Z51	X52	Y52	Z52	X53	Y53	Z53	

260	2.59	999.3777465820312	1010.515014648438	535.4671630859375	828.4746704101562	995.0101928710938	502.9606018066406	913.4967041015625	1067.897338867188	517.36767578125	994.9539184570312	1248.020874023438	258.9710388183594	914.3504638671875	1203.240844726562	521.5983276367188	942.5857543945312	1463.548828125	444.8507385253906	988.7293701171875	1364.292358398438	280.5659484863281	989.9214477539062	1328.823486328125	534.3408813476562	839.1199340820312	1432.98681640625	442.8743286132812	796.9974975585938	1430.4404296875	324.0437316894531	703.454345703125	1318.763305664062	337.4926452636719	643.116455078125	1115.615600585938	341.0022277832031	718.8726806640625	1092.780395507812	415.0088195800781	657.2018432617188	858.1885375976562	284.8917541503906	592.1824951171875	868.6532592773438	338.6592712402344	612.78125	1009.101196289062	332.953125	639.3167114257812	673.6860961914062	300.3103637695312	581.5388793945312	783.474609375	316.6838073730469	637.2244873046875	775.1900634765625	273.1873168945312	1124.509521484375	1420.96240234375	436.4522705078125	1182.549438476562	1358.5263671875	472.2083129882812	1227.3984375	1102.057495117188	535.9014892578125	1143.271240234375	1069.043823242188	490.4808349609375	1258.739868164062	858.2220458984375	379.2093505859375	1283.22802734375	838.8056640625	461.26123046875	1246.576782226562	1020.861267089844	526.845947265625	1255.281616210938	670.2412109375	357.0292358398438	1274.841918945312	758.1204223632812	350.4814453125	1304.119995117188	752.6670532226562	422.2522583007812	926.9440307617188	1627.479736328125	417.7974243164062	1047.486572265625	1671.005493164062	243.4732360839844	920.9785766601562	1676.216918945312	246.1361999511719	1063.812744140625	1614.556762695312	405.3220825195312	767.9346923828125	939.193603515625	374.0865478515625	1091.586059570312	940.78759765625	497.5888671875	1110.642822265625	951.230224609375	372.5584716796875	858.0099487304688	945.6860961914062	288.965087890625	876.8893432617188	535.3469848632812	129.7219848632812	814.0047607421875	652.2380981445312	209.9428863525391	875.74365234375	58.9946174621582	180.4041442871094	864.0967407226562	278.3659057617188	157.2196960449219	924.7982177734375	90.78919219970703	-11.59539318084717	965.4234619140625	74.52424621582031	42.73002624511719	859.6940307617188	68.57260894775391	75.02110290527344	940.4706420898438	50.2090950012207	245.9387054443359	1102.183471679688	500.6531066894531	477.9170532226562	1125.809936523438	768.4203491210938	436.9796447753906	1075.403198242188	43.05480194091797	655.1489868164062	1102.3994140625	383.630615234375	522.7479858398438	1127.04736328125	29.15397262573242	444.4004211425781	1064.06005859375	36.4504508972168	482.7548217773438	1138.943603515625	35.18951797485352	548.9345703125	1005.426879882812	48.06892013549805	677.7614135742188	
261	2.6	1002.070190429688	1008.510498046875	525.8140258789062	830.8529663085938	992.82470703125	494.5201110839844	915.8211059570312	1065.951416015625	508.7237548828125	994.3907470703125	1246.219360351562	249.2758178710938	916.8626708984375	1201.301147460938	512.8772583007812	943.9938354492188	1461.670532226562	435.7482299804688	988.1229248046875	1362.496459960938	270.8800354003906	992.6282348632812	1327.0498046875	524.6213989257812	840.5597534179688	1431.01220703125	435.2312622070312	796.933837890625	1428.302001953125	316.9553833007812	703.5584106445312	1316.820678710938	331.5928039550781	642.6853637695312	1113.981689453125	335.82763671875	719.4617919921875	1090.618530273438	408.4378356933594	654.4872436523438	856.5817260742188	279.1855163574219	590.6663818359375	867.2569580078125	334.1707153320312	611.723876953125	1007.601745605469	328.1984252929688	636.0460205078125	672.1106567382812	294.5387268066406	579.099365234375	782.1468505859375	312.2344055175781	633.9195556640625	773.7166748046875	267.6333312988281	1125.8896484375	1419.338623046875	424.9822998046875	1184.609497070312	1356.8505859375	459.7027282714844	1231.362182617188	1099.893798828125	520.7542114257812	1146.52880859375	1067.060668945312	476.7518920898438	1259.876098632812	858.2535400390625	360.0524291992188	1286.093994140625	837.6566772460938	441.2853088378906	1250.576904296875	1018.670043945312	510.39794921875	1256.222900390625	670.607421875	335.1932067871094	1275.4423828125	758.6076049804688	329.4971313476562	1306.322143554688	752.1600952148438	400.5309753417969	927.809814453125	1625.404541015625	408.5190124511719	1046.353759765625	1669.224365234375	232.91650390625	919.9102172851562	1674.417114257812	237.0062255859375	1064.5419921875	1612.5283203125	394.3894653320312	769.5700073242188	936.6666259765625	366.1051330566406	1094.12646484375	939.3523559570312	486.8968811035156	1111.977172851562	949.95947265625	361.8253784179688	858.7756958007812	943.8118286132812	279.9468078613281	876.068359375	532.090576171875	124.4231796264648	812.8379516601562	648.126220703125	204.7007751464844	877.92333984375	55.59492874145508	149.1975402832031	865.0550537109375	276.0169067382812	138.4386444091797	926.3845825195312	97.84911346435547	-40.90486526489258	967.2750244140625	78.92404937744141	12.3346996307373	861.6516723632812	70.29351043701172	44.41010665893555	942.9425659179688	44.06526184082031	214.2325897216797	1103.580200195312	500.0364379882812	471.6961669921875	1127.543090820312	767.1710205078125	427.5593566894531	1076.176391601562	44.51834487915039	655.04443359375	1103.678344726562	383.4262084960938	518.1009521484375	1127.089599609375	29.02518653869629	444.4149780273438	1064.231079101562	36.48360824584961	482.7811584472656	1139.227294921875	35.23627090454102	548.834228515625	1006.338134765625	49.96637344360352	677.7998046875	
262	2.61	1004.550720214844	1006.46240234375	515.992431640625	833.0221557617188	990.5369262695312	485.8290405273438	917.8731079101562	1063.946166992188	499.8732604980469	993.6838989257812	1244.412231445312	239.5083312988281	919.1033325195312	1199.27685546875	503.9754333496094	945.1778564453125	1459.7548828125	426.6121826171875	987.3629150390625	1360.698364257812	261.15087890625	995.0540771484375	1325.193237304688	514.8309326171875	841.7673950195312	1428.959838867188	427.4031982421875	796.700927734375	1426.130493164062	309.7425842285156	703.5095825195312	1314.79736328125	325.4866333007812	642.2055053710938	1112.234985351562	330.3945922851562	719.9743041992188	1088.392700195312	401.698486328125	651.955322265625	854.8606567382812	273.2749633789062	589.2784423828125	865.7011108398438	329.3697814941406	610.7110595703125	1005.969787597656	323.1490478515625	633.0479736328125	670.4268188476562	288.6269836425781	576.8629760742188	780.6686401367188	307.4916687011719	630.862060546875	772.1073608398438	261.8886108398438	1127.014404296875	1417.658813476562	413.5552368164062	1186.374389648438	1355.10400390625	447.2435607910156	1234.867553710938	1097.646606445312	505.5051879882812	1149.39501953125	1065.002075195312	462.9293212890625	1260.497192382812	858.2805786132812	340.8663024902344	1288.405883789062	836.497314453125	421.2324829101562	1254.09716796875	1016.405029296875	493.8363952636719	1256.550170898438	671.0087890625	313.30712890625	1275.49169921875	759.119873046875	308.4984436035156	1307.921508789062	751.6724243164062	378.7493896484375	928.4688110351562	1623.289794921875	399.1919860839844	1045.036499023438	1667.410278320312	222.3563079833984	918.6880493164062	1672.586059570312	227.8604736328125	1065.096069335938	1610.496459960938	383.4527893066406	771.074951171875	934.109619140625	357.8195495605469	1096.43701171875	937.92138671875	476.0057983398438	1113.113891601562	948.6721801757812	350.9210815429688	859.3125	941.914306640625	270.6758422851562	875.4319458007812	528.6410522460938	119.3248825073242	811.7464599609375	643.6744995117188	199.6263122558594	879.8212280273438	53.28266525268555	119.6677398681641	865.8661499023438	274.1535034179688	120.7064743041992	927.0176391601562	105.217887878418	-68.337158203125	968.3623657226562	83.93463897705078	-16.36844825744629	862.9736328125	72.66765594482422	15.68100738525391	945.27294921875	39.25565338134766	183.9559783935547	1104.988525390625	499.4319152832031	465.0234680175781	1129.13525390625	765.9519653320312	417.8306579589844	1077.06591796875	46.1981086730957	654.9074096679688	1105.00146484375	383.2431030273438	513.0813598632812	1127.143920898438	28.92482566833496	444.4213562011719	1064.434936523438	36.54116058349609	482.8108215332031	1139.564208984375	35.33471298217773	548.6940307617188	1007.366027832031	52.16205978393555	677.8235473632812	
263	2.62	1006.818969726562	1004.40234375	505.9834289550781	834.9793701171875	988.2022094726562	476.8857421875	919.6864624023438	1061.9140625	490.7997436523438	992.8220825195312	1242.62744140625	229.6451110839844	921.071533203125	1197.198974609375	494.8784790039062	946.1281127929688	1457.8271484375	417.4241943359375	986.444580078125	1358.9248046875	251.3589477539062	997.2017822265625	1323.28515625	504.959716796875	842.7348022460938	1426.853759765625	419.3746032714844	796.2933349609375	1423.956420898438	302.38623046875	703.2972412109375	1312.716674804688	319.1792602539062	641.666259765625	1110.3974609375	324.7049255371094	720.4332275390625	1086.146118164062	394.8046569824219	649.5982055664062	853.03759765625	267.1565246582031	587.9963989257812	864.0089111328125	324.2511291503906	609.7305297851562	1004.232788085938	317.806884765625	630.3176879882812	668.6602172851562	282.562744140625	574.81494140625	779.06201171875	302.4514770507812	628.0425415039062	770.3795776367188	255.9505920410156	1127.88525390625	1415.94384765625	402.1510620117188	1187.8369140625	1353.2958984375	434.8143005371094	1237.907836914062	1095.327758789062	490.1685485839844	1151.84814453125	1062.897216796875	449.005126953125	1260.611450195312	858.3189086914062	321.6864318847656	1290.152221679688	835.3401489257812	401.1492614746094	1257.128295898438	1014.09033203125	477.1849060058594	1256.272094726562	671.4633178710938	291.4046936035156	1274.997680664062	759.6707153320312	287.5229187011719	1308.911376953125	751.2139892578125	356.9602966308594	928.926025390625	1621.168212890625	389.8212280273438	1043.537963867188	1665.602416992188	211.7824249267578	917.3070678710938	1670.76513671875	218.7057647705078	1065.473388671875	1608.486206054688	372.5090637207031	772.42236328125	931.5695190429688	349.26318359375	1098.508056640625	936.5044555664062	464.9105529785156	1114.068603515625	947.3885498046875	339.8087158203125	859.6312866210938	940.0286254882812	261.1741943359375	874.9310302734375	525.1721801757812	114.2524337768555	810.8026123046875	639.0630493164062	194.5889129638672	881.5442504882812	51.87503814697266	92.25105285644531	866.5108032226562	272.7109985351562	104.2272872924805	926.53466796875	112.5215606689453	-93.65621948242188	968.5686645507812	89.26293182373047	-43.15005874633789	863.606201171875	75.41863250732422	-10.7602653503418	947.6064453125	35.69295120239258	155.4826507568359	1106.38037109375	498.8338012695312	457.8499450683594	1130.56884765625	764.7623901367188	407.7723388671875	1078.033325195312	48.10825347900391	654.69775390625	1106.342895507812	383.0862426757812	507.6530151367188	1127.20751953125	28.84603118896484	444.4156799316406	1064.66552734375	36.62633895874023	482.8267211914062	1139.946655273438	35.5058708190918	548.4922485351562	1008.473693847656	54.68021392822266	677.7876586914062	
